name rise37.2698peak67.6939fall79.5734.mot
datacolumns 19
datarows 18
range 20.18660600000000 20.21492800000000
endheader
time	ground_force1_vx	ground_force1_vy	ground_force1_vz	ground_force1_px	ground_force1_py	ground_force1_pz	ground_force2_vx	ground_force2_vy	ground_force2_vz	ground_force2_px	ground_force2_py	ground_force2_pz	ground_torque1_x	ground_torque1_y	ground_torque1_z	ground_torque2_x	ground_torque2_y	ground_torque2_z	
20.18660600000000	17.63955300000000	705.87266099999999	36.42070900000000	0.26023400000000	0.00000000000000	0.09629400000000	0.00000000000000	0.00000000000000	0.00000000000000	0.00000000000000	0.00000000000000	0.00000000000000	0.00000000000000	15.79994900000000	0.00000000000000	0.00000000000000	0.00000000000000	0.00000000000000	
20.18825500000000	17.39259400000000	706.27624900000001	36.39523400000000	0.25972800000000	0.00000000000000	0.09624100000000	0.00000000000000	0.00000000000000	0.00000000000000	0.00000000000000	0.00000000000000	0.00000000000000	0.00000000000000	15.82171600000000	0.00000000000000	0.00000000000000	0.00000000000000	0.00000000000000	
20.18992900000000	17.13650000000000	706.71436700000004	36.37359500000000	0.25919200000000	0.00000000000000	0.09619100000000	0.00000000000000	0.00000000000000	0.00000000000000	0.00000000000000	0.00000000000000	0.00000000000000	0.00000000000000	15.84645700000000	0.00000000000000	0.00000000000000	0.00000000000000	0.00000000000000	
20.19159700000000	16.87088200000000	707.18629199999998	36.35562700000000	0.25862400000000	0.00000000000000	0.09614300000000	0.00000000000000	0.00000000000000	0.00000000000000	0.00000000000000	0.00000000000000	0.00000000000000	0.00000000000000	15.87407700000000	0.00000000000000	0.00000000000000	0.00000000000000	0.00000000000000	
20.19326200000000	16.59537900000000	707.69130299999995	36.34117000000000	0.25802400000000	0.00000000000000	0.09609800000000	0.00000000000000	0.00000000000000	0.00000000000000	0.00000000000000	0.00000000000000	0.00000000000000	0.00000000000000	15.90448600000000	0.00000000000000	0.00000000000000	0.00000000000000	0.00000000000000	
20.19492100000000	16.30965800000000	708.22867399999996	36.33007100000000	0.25739000000000	0.00000000000000	0.09605600000000	0.00000000000000	0.00000000000000	0.00000000000000	0.00000000000000	0.00000000000000	0.00000000000000	0.00000000000000	15.93759800000000	0.00000000000000	0.00000000000000	0.00000000000000	0.00000000000000	
20.19660100000000	16.01341900000000	708.79767900000002	36.32218200000000	0.25672200000000	0.00000000000000	0.09601600000000	0.00000000000000	0.00000000000000	0.00000000000000	0.00000000000000	0.00000000000000	0.00000000000000	0.00000000000000	15.97333600000000	0.00000000000000	0.00000000000000	0.00000000000000	0.00000000000000	
20.19825900000000	15.70639100000000	709.39758700000004	36.31736300000000	0.25601800000000	0.00000000000000	0.09598000000000	0.00000000000000	0.00000000000000	0.00000000000000	0.00000000000000	0.00000000000000	0.00000000000000	0.00000000000000	16.01162500000000	0.00000000000000	0.00000000000000	0.00000000000000	0.00000000000000	
20.19992200000000	15.38833400000000	710.02766799999995	36.31548100000000	0.25527900000000	0.00000000000000	0.09594600000000	0.00000000000000	0.00000000000000	0.00000000000000	0.00000000000000	0.00000000000000	0.00000000000000	0.00000000000000	16.05240100000000	0.00000000000000	0.00000000000000	0.00000000000000	0.00000000000000	
20.20160400000000	15.05903700000000	710.68718600000000	36.31641100000000	0.25450500000000	0.00000000000000	0.09591400000000	0.00000000000000	0.00000000000000	0.00000000000000	0.00000000000000	0.00000000000000	0.00000000000000	0.00000000000000	16.09560200000000	0.00000000000000	0.00000000000000	0.00000000000000	0.00000000000000	
20.20326800000000	14.71832400000000	711.37540200000001	36.32003600000000	0.25369500000000	0.00000000000000	0.09588600000000	0.00000000000000	0.00000000000000	0.00000000000000	0.00000000000000	0.00000000000000	0.00000000000000	0.00000000000000	16.14117400000000	0.00000000000000	0.00000000000000	0.00000000000000	0.00000000000000	
20.20492400000000	14.36604600000000	712.09157400000004	36.32625200000000	0.25285000000000	0.00000000000000	0.09586000000000	0.00000000000000	0.00000000000000	0.00000000000000	0.00000000000000	0.00000000000000	0.00000000000000	0.00000000000000	16.18906800000000	0.00000000000000	0.00000000000000	0.00000000000000	0.00000000000000	
20.20658800000000	14.00208800000000	712.83495700000003	36.33495900000000	0.25197100000000	0.00000000000000	0.09583600000000	0.00000000000000	0.00000000000000	0.00000000000000	0.00000000000000	0.00000000000000	0.00000000000000	0.00000000000000	16.23924300000000	0.00000000000000	0.00000000000000	0.00000000000000	0.00000000000000	
20.20825800000000	13.62636300000000	713.60479999999995	36.34607300000000	0.25105800000000	0.00000000000000	0.09581500000000	0.00000000000000	0.00000000000000	0.00000000000000	0.00000000000000	0.00000000000000	0.00000000000000	0.00000000000000	16.29166100000000	0.00000000000000	0.00000000000000	0.00000000000000	0.00000000000000	
20.20992400000000	13.23881700000000	714.40034900000001	36.35951600000000	0.25011100000000	0.00000000000000	0.09579700000000	0.00000000000000	0.00000000000000	0.00000000000000	0.00000000000000	0.00000000000000	0.00000000000000	0.00000000000000	16.34629100000000	0.00000000000000	0.00000000000000	0.00000000000000	0.00000000000000	
20.21160000000000	12.83942400000000	715.22084700000005	36.37522300000000	0.24913300000000	0.00000000000000	0.09578000000000	0.00000000000000	0.00000000000000	0.00000000000000	0.00000000000000	0.00000000000000	0.00000000000000	0.00000000000000	16.40310700000000	0.00000000000000	0.00000000000000	0.00000000000000	0.00000000000000	
20.21326000000000	12.42818800000000	716.06553099999996	36.39314200000000	0.24812300000000	0.00000000000000	0.09576600000000	0.00000000000000	0.00000000000000	0.00000000000000	0.00000000000000	0.00000000000000	0.00000000000000	0.00000000000000	16.46208700000000	0.00000000000000	0.00000000000000	0.00000000000000	0.00000000000000	
20.21492800000000	12.00514200000000	716.93363299999999	36.41323000000000	0.24708500000000	0.00000000000000	0.09575400000000	0.00000000000000	0.00000000000000	0.00000000000000	0.00000000000000	0.00000000000000	0.00000000000000	0.00000000000000	16.52321400000000	0.00000000000000	0.00000000000000	0.00000000000000	0.00000000000000	
